<svg width="25" height="24" viewBox="0 0 25 24" fill="none" xmlns="http://www.w3.org/2000/svg">
<path d="M12.9062 2C7.39225 2 2.90625 6.486 2.90625 12V16.143C2.90625 17.167 3.80325 18 4.90625 18H5.90625C6.17147 18 6.42582 17.8946 6.61336 17.7071C6.80089 17.5196 6.90625 17.2652 6.90625 17V11.857C6.90625 11.5918 6.80089 11.3374 6.61336 11.1499C6.42582 10.9624 6.17147 10.857 5.90625 10.857H4.99825C5.55425 6.987 8.88425 4 12.9062 4C16.9282 4 20.2583 6.987 20.8143 10.857H19.9062C19.641 10.857 19.3867 10.9624 19.1991 11.1499C19.0116 11.3374 18.9062 11.5918 18.9062 11.857V18C18.9062 19.103 18.0092 20 16.9062 20H14.9062V19H10.9062V22H16.9062C19.1122 22 20.9062 20.206 20.9062 18C22.0093 18 22.9062 17.167 22.9062 16.143V12C22.9062 6.486 18.4202 2 12.9062 2Z" fill="#414142"/>
</svg>
