<svg width="89" height="89" viewBox="0 0 89 89" fill="none" xmlns="http://www.w3.org/2000/svg">
<g opacity="0.2" filter="url(#filter0_d_2000_22664)">
<rect x="12" y="12" width="65" height="65" rx="32.5" fill="#14AE5C"/>
</g>
<path d="M59.7986 44.5009C59.7986 52.9474 52.9513 59.7947 44.5048 59.7947C36.0582 59.7947 29.2109 52.9474 29.2109 44.5009C29.2109 36.0543 36.0582 29.207 44.5048 29.207C52.9513 29.207 59.7986 36.0543 59.7986 44.5009Z" fill="white"/>
<path d="M44.5005 25.3828C33.9475 25.3828 25.3828 33.9475 25.3828 44.5005C25.3828 55.0534 33.9475 63.6181 44.5005 63.6181C55.0534 63.6181 63.6181 55.0534 63.6181 44.5005C63.6181 33.9475 55.0534 25.3828 44.5005 25.3828ZM39.3196 52.7019L32.4563 45.8387C32.2793 45.6617 32.1389 45.4516 32.0432 45.2203C31.9474 44.9891 31.8981 44.7412 31.8981 44.4909C31.8981 44.2406 31.9474 43.9927 32.0432 43.7615C32.1389 43.5302 32.2793 43.3201 32.4563 43.1431C32.6333 42.9661 32.8435 42.8257 33.0747 42.7299C33.306 42.6341 33.5538 42.5848 33.8041 42.5848C34.0544 42.5848 34.3023 42.6341 34.5336 42.7299C34.7648 42.8257 34.9749 42.9661 35.1519 43.1431L40.6769 48.649L53.8299 35.496C54.1873 35.1386 54.6721 34.9378 55.1777 34.9378C55.6832 34.9378 56.168 35.1386 56.5255 35.496C56.8829 35.8535 57.0837 36.3383 57.0837 36.8438C57.0837 37.3494 56.8829 37.8342 56.5255 38.1916L42.0152 52.7019C41.8383 52.8792 41.6282 53.0198 41.3969 53.1157C41.1657 53.2116 40.9178 53.261 40.6674 53.261C40.417 53.261 40.1691 53.2116 39.9378 53.1157C39.7065 53.0198 39.4964 52.8792 39.3196 52.7019Z" fill="#14AE5C"/>
<defs>
<filter id="filter0_d_2000_22664" x="0" y="0" width="89" height="89" filterUnits="userSpaceOnUse" color-interpolation-filters="sRGB">
<feFlood flood-opacity="0" result="BackgroundImageFix"/>
<feColorMatrix in="SourceAlpha" type="matrix" values="0 0 0 0 0 0 0 0 0 0 0 0 0 0 0 0 0 0 127 0" result="hardAlpha"/>
<feOffset/>
<feGaussianBlur stdDeviation="6"/>
<feComposite in2="hardAlpha" operator="out"/>
<feColorMatrix type="matrix" values="0 0 0 0 0 0 0 0 0 1 0 0 0 0 0.467532 0 0 0 0.12 0"/>
<feBlend mode="normal" in2="BackgroundImageFix" result="effect1_dropShadow_2000_22664"/>
<feBlend mode="normal" in="SourceGraphic" in2="effect1_dropShadow_2000_22664" result="shape"/>
</filter>
</defs>
</svg>
