<svg width="23" height="22" viewBox="0 0 23 22" fill="none" xmlns="http://www.w3.org/2000/svg">
<path d="M12.4062 0V3.062C14.1686 3.28459 15.8069 4.08713 17.063 5.34324C18.3191 6.59934 19.1217 8.23761 19.3442 10H22.4062V12H19.3442C19.1217 13.7624 18.3191 15.4007 17.063 16.6568C15.8069 17.9129 14.1686 18.7154 12.4062 18.938V22H10.4062V18.938C8.64386 18.7154 7.00559 17.9129 5.74949 16.6568C4.49338 15.4007 3.69084 13.7624 3.46825 12H0.40625V10H3.46825C3.69084 8.23761 4.49338 6.59934 5.74949 5.34324C7.00559 4.08713 8.64386 3.28459 10.4062 3.062V0H12.4062ZM11.4062 5C9.81495 5 8.28883 5.63214 7.16361 6.75736C6.03839 7.88258 5.40625 9.4087 5.40625 11C5.40625 12.5913 6.03839 14.1174 7.16361 15.2426C8.28883 16.3679 9.81495 17 11.4062 17C12.9975 17 14.5237 16.3679 15.6489 15.2426C16.7741 14.1174 17.4062 12.5913 17.4062 11C17.4062 9.4087 16.7741 7.88258 15.6489 6.75736C14.5237 5.63214 12.9975 5 11.4062 5ZM9.40625 11C9.40625 10.4696 9.61696 9.96086 9.99204 9.58579C10.3671 9.21071 10.8758 9 11.4062 9C11.9367 9 12.4454 9.21071 12.8205 9.58579C13.1955 9.96086 13.4062 10.4696 13.4062 11C13.4062 11.5304 13.1955 12.0391 12.8205 12.4142C12.4454 12.7893 11.9367 13 11.4062 13C10.8758 13 10.3671 12.7893 9.99204 12.4142C9.61696 12.0391 9.40625 11.5304 9.40625 11Z" fill="#414142"/>
</svg>
