<svg width="20" height="20" viewBox="0 0 20 20" fill="none" xmlns="http://www.w3.org/2000/svg">
<path d="M9.99825 12.078C12.3882 12.078 14.3902 11.266 14.5112 10.205L13.3862 7.053C13.1222 7.814 11.6612 8.354 9.99825 8.354C8.33525 8.354 6.87425 7.814 6.61025 7.053L5.48625 10.205C5.60725 11.266 7.60825 12.078 9.99825 12.078ZM9.99825 5.373C11.1222 5.373 12.1652 5.025 12.4712 4.484C12.0502 3.302 11.6892 2.287 11.4602 1.648C11.3082 1.221 10.6192 1 9.99825 1C9.37725 1 8.68825 1.221 8.53625 1.648L7.52525 4.484C7.83125 5.025 8.87525 5.373 9.99825 5.373ZM18.7782 13.066L15.0232 11.552L15.4562 12.759C15.4342 14.038 12.9522 15.058 9.99825 15.058C7.04525 15.058 4.56125 14.039 4.54025 12.759L4.97325 11.552L1.21825 13.066C0.165246 13.49 0.120246 14.275 1.12025 14.81L8.18225 18.597C9.18025 19.132 10.8152 19.132 11.8142 18.597L18.8772 14.81C19.8762 14.275 19.8312 13.49 18.7782 13.066Z" fill="#A8B7FF"/>
</svg>
