<svg width="89" height="89" viewBox="0 0 89 89" fill="none" xmlns="http://www.w3.org/2000/svg">
<g opacity="0.2" filter="url(#filter0_d_2000_6755)">
<rect x="12" y="12" width="65" height="65" rx="32.5" fill="#FF1943"/>
</g>
<path d="M59.7986 44.5048C59.7986 52.9513 52.9513 59.7986 44.5048 59.7986C36.0582 59.7986 29.2109 52.9513 29.2109 44.5048C29.2109 36.0582 36.0582 29.2109 44.5048 29.2109C52.9513 29.2109 59.7986 36.0582 59.7986 44.5048Z" fill="white"/>
<path d="M59.5252 44.2313C59.5252 52.6779 52.6779 59.5252 44.2313 59.5252C35.7848 59.5252 28.9375 52.6779 28.9375 44.2313C28.9375 35.7848 35.7848 28.9375 44.2313 28.9375C52.6779 28.9375 59.5252 35.7848 59.5252 44.2313Z" fill="white"/>
<path d="M44.227 25.1133C33.6741 25.1133 25.1094 33.678 25.1094 44.2309C25.1094 54.7839 33.6741 63.3486 44.227 63.3486C54.78 63.3486 63.3447 54.7839 63.3447 44.2309C63.3447 33.678 54.78 25.1133 44.227 25.1133ZM39.0461 52.4324L32.1829 45.5692C32.0059 45.3922 31.8655 45.182 31.7697 44.9508C31.6739 44.7195 31.6246 44.4717 31.6246 44.2214C31.6246 43.9711 31.6739 43.7232 31.7697 43.492C31.8655 43.2607 32.0059 43.0506 32.1829 42.8736C32.3599 42.6966 32.57 42.5562 32.8013 42.4604C33.0325 42.3646 33.2804 42.3153 33.5307 42.3153C33.781 42.3153 34.0289 42.3646 34.2601 42.4604C34.4914 42.5562 34.7015 42.6966 34.8785 42.8736L40.4035 48.3795L53.5564 35.2265C53.9139 34.8691 54.3987 34.6682 54.9042 34.6682C55.4098 34.6682 55.8946 34.8691 56.252 35.2265C56.6095 35.584 56.8103 36.0688 56.8103 36.5743C56.8103 37.0798 56.6095 37.5646 56.252 37.9221L41.7417 52.4324C41.5649 52.6096 41.3548 52.7502 41.1235 52.8462C40.8922 52.9421 40.6443 52.9915 40.3939 52.9915C40.1436 52.9915 39.8956 52.9421 39.6644 52.8462C39.4331 52.7502 39.223 52.6096 39.0461 52.4324Z" fill="white"/>
<path d="M44.2299 25.0781C33.6537 25.0781 25.0781 33.6537 25.0781 44.2299C25.0781 54.8061 33.6537 63.3817 44.2299 63.3817C54.8061 63.3817 63.3817 54.8061 63.3817 44.2299C63.3817 33.6537 54.8061 25.0781 44.2299 25.0781ZM42.8619 34.996C42.8619 34.8079 43.0158 34.654 43.2039 34.654H45.2559C45.444 34.654 45.5979 34.8079 45.5979 34.996V46.6239C45.5979 46.812 45.444 46.9659 45.2559 46.9659H43.2039C43.0158 46.9659 42.8619 46.812 42.8619 46.6239V34.996ZM44.2299 53.8058C43.6929 53.7948 43.1817 53.5738 42.8058 53.1902C42.4299 52.8066 42.2194 52.2909 42.2194 51.7538C42.2194 51.2168 42.4299 50.7011 42.8058 50.3174C43.1817 49.9338 43.6929 49.7128 44.2299 49.7019C44.7669 49.7128 45.2782 49.9338 45.654 50.3174C46.0299 50.7011 46.2404 51.2168 46.2404 51.7538C46.2404 52.2909 46.0299 52.8066 45.654 53.1902C45.2782 53.5738 44.7669 53.7948 44.2299 53.8058Z" fill="#E01E3C"/>
<defs>
<filter id="filter0_d_2000_6755" x="0" y="0" width="89" height="89" filterUnits="userSpaceOnUse" color-interpolation-filters="sRGB">
<feFlood flood-opacity="0" result="BackgroundImageFix"/>
<feColorMatrix in="SourceAlpha" type="matrix" values="0 0 0 0 0 0 0 0 0 0 0 0 0 0 0 0 0 0 127 0" result="hardAlpha"/>
<feOffset/>
<feGaussianBlur stdDeviation="6"/>
<feComposite in2="hardAlpha" operator="out"/>
<feColorMatrix type="matrix" values="0 0 0 0 0 0 0 0 0 1 0 0 0 0 0.467532 0 0 0 0.12 0"/>
<feBlend mode="normal" in2="BackgroundImageFix" result="effect1_dropShadow_2000_6755"/>
<feBlend mode="normal" in="SourceGraphic" in2="effect1_dropShadow_2000_6755" result="shape"/>
</filter>
</defs>
</svg>
