<svg width="89" height="89" viewBox="0 0 89 89" fill="none" xmlns="http://www.w3.org/2000/svg">
<g opacity="0.2" filter="url(#filter0_d_2706_13545)">
<rect x="12" y="12" width="65" height="65" rx="32.5" fill="#FF7300"/>
</g>
<path d="M59.7986 44.5048C59.7986 52.9513 52.9513 59.7986 44.5048 59.7986C36.0582 59.7986 29.2109 52.9513 29.2109 44.5048C29.2109 36.0582 36.0582 29.2109 44.5048 29.2109C52.9513 29.2109 59.7986 36.0582 59.7986 44.5048Z" fill="white"/>
<path d="M59.5252 44.2313C59.5252 52.6779 52.6779 59.5252 44.2313 59.5252C35.7848 59.5252 28.9375 52.6779 28.9375 44.2313C28.9375 35.7848 35.7848 28.9375 44.2313 28.9375C52.6779 28.9375 59.5252 35.7848 59.5252 44.2313Z" fill="#FF7300"/>
<path d="M44.227 25.1133C33.6741 25.1133 25.1094 33.678 25.1094 44.2309C25.1094 54.7839 33.6741 63.3486 44.227 63.3486C54.78 63.3486 63.3447 54.7839 63.3447 44.2309C63.3447 33.678 54.78 25.1133 44.227 25.1133ZM39.0461 52.4324L32.1829 45.5692C32.0059 45.3922 31.8655 45.182 31.7697 44.9508C31.6739 44.7195 31.6246 44.4717 31.6246 44.2214C31.6246 43.9711 31.6739 43.7232 31.7697 43.492C31.8655 43.2607 32.0059 43.0506 32.1829 42.8736C32.3599 42.6966 32.57 42.5562 32.8013 42.4604C33.0325 42.3646 33.2804 42.3153 33.5307 42.3153C33.781 42.3153 34.0289 42.3646 34.2601 42.4604C34.4914 42.5562 34.7015 42.6966 34.8785 42.8736L40.4035 48.3795L53.5564 35.2265C53.9139 34.8691 54.3987 34.6682 54.9042 34.6682C55.4098 34.6682 55.8946 34.8691 56.252 35.2265C56.6095 35.584 56.8103 36.0688 56.8103 36.5743C56.8103 37.0798 56.6095 37.5646 56.252 37.9221L41.7417 52.4324C41.5649 52.6096 41.3548 52.7502 41.1235 52.8462C40.8922 52.9421 40.6443 52.9915 40.3939 52.9915C40.1436 52.9915 39.8956 52.9421 39.6644 52.8462C39.4331 52.7502 39.223 52.6096 39.0461 52.4324Z" fill="#FF7300"/>
<path fill-rule="evenodd" clip-rule="evenodd" d="M48.6224 35.125C48.7592 35.125 48.8946 35.1519 49.021 35.2043C49.1474 35.2566 49.2622 35.3334 49.359 35.4301C49.4557 35.5268 49.5324 35.6417 49.5848 35.768C49.6371 35.8944 49.6641 36.0299 49.6641 36.1667C49.6641 36.3035 49.6371 36.4389 49.5848 36.5653C49.5324 36.6917 49.4557 36.8065 49.359 36.9032C49.2622 37 49.1474 37.0767 49.021 37.129C48.8946 37.1814 48.7592 37.2083 48.6224 37.2083H39.2474V50.75C39.2474 51.0263 39.3571 51.2912 39.5525 51.4866C39.7478 51.6819 40.0128 51.7917 40.2891 51.7917H48.6224C48.8987 51.7917 49.1636 51.9014 49.359 52.0968C49.5543 52.2921 49.6641 52.5571 49.6641 52.8333C49.6641 53.1096 49.5543 53.3746 49.359 53.5699C49.1636 53.7653 48.8987 53.875 48.6224 53.875H40.2891C39.4603 53.875 38.6654 53.5458 38.0794 52.9597C37.4933 52.3737 37.1641 51.5788 37.1641 50.75V36.1667C37.1641 35.8904 37.2738 35.6254 37.4692 35.4301C37.6645 35.2347 37.9295 35.125 38.2057 35.125H48.6224ZM50.4005 40.6385C50.2549 40.493 50.0694 40.3938 49.8675 40.3536C49.6655 40.3134 49.4562 40.3339 49.2659 40.4126C49.0757 40.4913 48.913 40.6246 48.7985 40.7957C48.6839 40.9668 48.6226 41.1681 48.6224 41.374V43.4573H42.3724C42.0961 43.4573 41.8312 43.567 41.6358 43.7624C41.4405 43.9577 41.3307 44.2227 41.3307 44.499C41.3307 44.7752 41.4405 45.0402 41.6358 45.2355C41.8312 45.4309 42.0961 45.5406 42.3724 45.5406H48.6224V47.624C48.6224 47.8299 48.6836 48.0313 48.798 48.2026C48.9125 48.3738 49.0752 48.5073 49.2655 48.5861C49.4558 48.6649 49.6652 48.6856 49.8672 48.6454C50.0693 48.6052 50.2548 48.5061 50.4005 48.3604L53.5255 45.2354C53.7208 45.0401 53.8305 44.7752 53.8305 44.499C53.8305 44.2227 53.7208 43.9578 53.5255 43.7625L50.4005 40.6385Z" fill="white"/>
<defs>
<filter id="filter0_d_2706_13545" x="0" y="0" width="89" height="89" filterUnits="userSpaceOnUse" color-interpolation-filters="sRGB">
<feFlood flood-opacity="0" result="BackgroundImageFix"/>
<feColorMatrix in="SourceAlpha" type="matrix" values="0 0 0 0 0 0 0 0 0 0 0 0 0 0 0 0 0 0 127 0" result="hardAlpha"/>
<feOffset/>
<feGaussianBlur stdDeviation="6"/>
<feComposite in2="hardAlpha" operator="out"/>
<feColorMatrix type="matrix" values="0 0 0 0 0 0 0 0 0 1 0 0 0 0 0.467532 0 0 0 0.12 0"/>
<feBlend mode="normal" in2="BackgroundImageFix" result="effect1_dropShadow_2706_13545"/>
<feBlend mode="normal" in="SourceGraphic" in2="effect1_dropShadow_2706_13545" result="shape"/>
</filter>
</defs>
</svg>
