<svg width="31" height="29" viewBox="0 0 31 29" fill="none" xmlns="http://www.w3.org/2000/svg">
<path d="M28.8711 17.833V20.6565L27.0136 19.6905V16.9414L28.8711 17.833Z" fill="#2D3134"/>
<path opacity="0.39" d="M28.8711 17.833V20.6565L27.0136 19.6905V16.9414L28.8711 17.833Z" fill="black"/>
<path d="M13.3403 23.7032C13.8604 23.406 14.3805 23.406 14.752 23.5546L15.7922 24.0747C16.238 24.2234 16.4609 24.6692 16.4609 25.2636C16.4609 26.3781 15.495 27.7898 14.3805 28.3842C13.7861 28.6814 13.266 28.6814 12.8945 28.5328C12.8945 28.5328 11.8543 28.0127 11.78 27.9384C11.4085 27.7155 11.2599 27.344 11.2599 26.8239C11.2599 25.6351 12.2258 24.2234 13.3403 23.7032Z" fill="#2D3134"/>
<path opacity="0.39" d="M12.8945 28.4565C12.7459 28.3822 11.8543 27.9364 11.78 27.9364C11.4085 27.7135 11.2599 27.342 11.2599 26.8219C11.2599 26.3761 11.4085 25.856 11.6314 25.4102L12.6716 25.9303C12.4487 26.3761 12.3001 26.8962 12.3001 27.342C12.3001 27.8621 12.523 28.3079 12.8945 28.4565Z" fill="black"/>
<path d="M12.8208 27.0434C12.8208 27.935 13.4895 28.2322 14.3811 27.7864C15.2727 27.3406 15.9414 26.3004 15.9414 25.4088C15.9414 24.5172 15.2727 24.2199 14.3811 24.6658C13.4895 25.1116 12.8208 26.1518 12.8208 27.0434Z" fill="#999999"/>
<path opacity="0.15" d="M14.2325 27.7888C15.1241 27.343 15.7928 26.3028 15.7928 25.4111C15.7928 24.9653 15.6442 24.6681 15.347 24.5195C15.7185 24.5938 15.9414 24.9653 15.9414 25.4111C15.9414 26.3028 15.2727 27.343 14.3811 27.7888C13.9353 28.0117 13.5638 28.0117 13.2666 27.8631C13.5638 28.0117 13.861 27.9374 14.2325 27.7888Z" fill="black"/>
<path d="M13.5649 26.5277C13.5649 26.8992 13.8621 27.0478 14.2336 26.8249C14.6051 26.602 14.9023 26.2305 14.9023 25.859C14.9023 25.4875 14.6051 25.3389 14.2336 25.5618C13.8621 25.7847 13.5649 26.1562 13.5649 26.5277Z" fill="#2D3134"/>
<path opacity="0.39" d="M13.5649 26.5277C13.5649 26.8992 13.8621 27.0478 14.2336 26.8249C14.6051 26.602 14.9023 26.2305 14.9023 25.859C14.9023 25.4875 14.6051 25.3389 14.2336 25.5618C13.8621 25.7847 13.5649 26.1562 13.5649 26.5277Z" fill="black"/>
<path d="M13.7134 26.6019C13.7134 26.9734 14.0106 27.122 14.3821 26.8991C14.7536 26.7505 15.0508 26.3047 15.0508 25.9332C15.0508 25.5617 14.7536 25.4131 14.3821 25.636C14.0106 25.7846 13.7134 26.2304 13.7134 26.6019Z" fill="#2D3134"/>
<path opacity="0.06" d="M12.3001 27.3459C12.3001 28.4604 13.266 28.9805 14.3805 28.3861C15.495 27.7917 16.4609 26.38 16.4609 25.2655C16.4609 24.1509 15.495 23.6308 14.3805 24.2252C13.266 24.7453 12.3001 26.1571 12.3001 27.3459Z" fill="black"/>
<path d="M25.602 17.5353C26.1221 17.2381 26.6422 17.2381 27.0137 17.3867L28.0539 17.9068C28.4255 18.0554 28.7227 18.5012 28.7227 19.0956C28.7227 20.2101 27.7567 21.6218 26.6422 22.2162C26.0478 22.5134 25.5277 22.5134 25.1562 22.3648C25.1562 22.3648 24.116 21.8447 24.0417 21.7704C23.6702 21.5475 23.5216 21.176 23.5216 20.6559C23.5216 19.5414 24.4875 18.1297 25.602 17.5353Z" fill="#2D3134"/>
<path opacity="0.39" d="M25.1562 22.3667C25.0076 22.2924 24.116 21.8465 24.0417 21.8465C23.6702 21.6236 23.5216 21.2521 23.5216 20.732C23.5216 20.2862 23.6702 19.7661 23.8931 19.3203L24.9333 19.8404C24.7104 20.2862 24.5618 20.8063 24.5618 21.2521C24.5618 21.7722 24.7847 22.1437 25.1562 22.3667Z" fill="black"/>
<path d="M25.0786 20.9496C25.0786 21.8412 25.7473 22.1385 26.6389 21.6926C27.5305 21.2468 28.1992 20.2066 28.1992 19.315C28.1992 18.4234 27.5305 18.1262 26.6389 18.572C25.7473 19.0178 25.0786 20.058 25.0786 20.9496Z" fill="#999999"/>
<path opacity="0.15" d="M26.4903 21.6247C27.3819 21.1789 28.0506 20.1387 28.0506 19.2471C28.0506 18.8013 27.902 18.5041 27.6048 18.3555C27.9763 18.4298 28.1992 18.8013 28.1992 19.2471C28.1992 20.1387 27.5305 21.1789 26.6389 21.6247C26.1931 21.8476 25.8216 21.8476 25.5244 21.699C25.8216 21.8476 26.1188 21.8476 26.4903 21.6247Z" fill="black"/>
<path d="M25.8227 20.4339C25.8227 20.8054 26.1199 20.954 26.4914 20.7311C26.863 20.5825 27.1602 20.1367 27.1602 19.7652C27.1602 19.3937 26.863 19.2451 26.4914 19.468C26.1199 19.6166 25.8227 20.0624 25.8227 20.4339Z" fill="#2D3134"/>
<path opacity="0.39" d="M25.8227 20.4339C25.8227 20.8054 26.1199 20.954 26.4914 20.7311C26.863 20.5825 27.1602 20.1367 27.1602 19.7652C27.1602 19.3937 26.863 19.2451 26.4914 19.468C26.1199 19.6166 25.8227 20.0624 25.8227 20.4339Z" fill="black"/>
<path d="M25.9712 20.4339C25.9712 20.8054 26.2684 20.954 26.6399 20.7311C27.0114 20.5082 27.3086 20.1367 27.3086 19.7652C27.3086 19.3937 27.0114 19.2451 26.6399 19.468C26.2684 19.6909 25.9712 20.1367 25.9712 20.4339Z" fill="#2D3134"/>
<path opacity="0.06" d="M24.5618 21.174C24.5618 22.2885 25.5277 22.8086 26.6422 22.2142C27.7567 21.6198 28.7227 20.2081 28.7227 19.0936C28.7227 17.9791 27.7567 17.459 26.6422 18.0534C25.5277 18.6478 24.5618 20.0595 24.5618 21.174Z" fill="black"/>
<path d="M20.176 0L30.5781 5.20107V16.5691L17.204 23.2562L6.80182 17.8322V6.68709L20.176 0Z" fill="#4EA264"/>
<path d="M30.5781 15.6055V17.0915L17.204 23.7786V22.2926L30.5781 15.6055ZM6.80182 17.0915V18.5775L17.204 23.7786V22.2926L6.80182 17.0915Z" fill="#2D3134"/>
<path opacity="0.06" d="M30.5781 5.19922V17.0874L17.204 23.7745V11.8863L30.5781 5.19922Z" fill="black"/>
<path opacity="0.39" d="M6.80099 6.6875V18.5757L17.2031 23.7767V11.8886L6.80099 6.6875Z" fill="black"/>
<path d="M1.60075 12.6314L6.0588 10.4023L16.4609 15.6034V23.9994C16.4609 24.2223 16.1637 24.3709 15.9408 24.2223C15.0492 23.4793 13.4889 23.9994 12.3744 25.3368C11.7057 26.1541 11.4085 27.0458 11.4085 27.7888L10.5169 28.2346L0.114725 23.0335V17.0894L1.60075 12.6314Z" fill="#E5E5E5"/>
<path d="M10.2195 21.9215L11.4826 18.2064C11.5569 18.0578 11.4826 17.9835 11.334 17.9092L2.04635 13.3026C1.89775 13.2283 1.74915 13.3026 1.67484 13.4512L0.48603 16.9433C0.411729 17.0919 0.486031 17.1662 0.634632 17.2405L9.84795 22.0701C9.99655 22.1444 10.2195 22.0701 10.2195 21.9215Z" fill="#3399CC"/>
<path opacity="0.15" d="M8.51172 16.4975L2.12184 13.3026C1.97324 13.2283 1.82463 13.3026 1.75033 13.4512L0.635818 16.7204L8.51172 16.4975Z" fill="black"/>
<path d="M0.559462 16.9377L0.633764 16.7148C0.633764 16.8634 0.633764 16.9377 0.782367 17.012L9.99568 21.8416C10.1443 21.9159 10.2929 21.8416 10.3672 21.693L10.2929 21.9159C10.2186 22.0645 10.07 22.1388 9.92138 22.0645L0.708064 17.235C0.559462 17.1607 0.485161 17.0863 0.559462 16.9377Z" fill="#2D3134"/>
<path d="M7.91797 21.5498L2.7169 18.9492V23.2587L7.91797 25.8592V21.5498Z" fill="white"/>
<path d="M7.54688 25.2641L3.08882 23.0351V19.543L7.54688 21.772V25.2641Z" fill="#2D3134"/>
<path d="M0.115752 23.0329V21.5469L10.5179 26.7479V28.234L0.115752 23.0329ZM12.0039 27.491L10.5179 28.234V26.7479L12.0039 26.0049V27.491Z" fill="#2D3134"/>
<path d="M7.54688 25.2642V26.0072L3.08882 23.7782V23.0352L7.54688 25.2642Z" fill="white"/>
<path d="M12.3755 18.0581L15.199 16.6463C15.2733 16.572 15.4219 16.6463 15.4219 16.7949V19.024C15.4219 19.1726 15.3476 19.3212 15.199 19.3212L14.2331 19.8413C14.1588 19.9156 14.0845 19.9156 14.0102 19.9899L13.0442 21.1787H12.9699L11.3353 21.996C11.261 22.0703 11.1124 21.9217 11.1867 21.8474L12.4498 18.1324C12.3012 18.1324 12.3012 18.0581 12.3755 18.0581Z" fill="#3399CC"/>
<path opacity="0.15" d="M11.0382 21.7731L12.5242 21.0301H12.5985L13.5644 19.8413C13.6387 19.767 13.713 19.6927 13.7873 19.6927L14.7532 19.1726C14.9019 19.0983 14.9762 19.024 14.9762 18.8754V16.7206L15.1248 16.6463C15.1991 16.572 15.3477 16.6463 15.3477 16.7949V19.024C15.3477 19.1726 15.2734 19.3212 15.1248 19.3212L14.1588 19.8413C14.0845 19.9156 14.0102 19.9156 13.9359 19.9899L12.97 21.1787H12.8957L11.2611 21.996C11.1125 22.0703 11.0382 21.996 11.0382 21.7731Z" fill="black"/>
<path d="M10.5191 25.2619V26.7479L10.8906 26.5993V25.1133L10.5191 25.2619Z" fill="#FFCC00"/>
<path d="M7.54688 22.2915V22.5144L3.08882 20.2854V20.0625L7.54688 22.2915ZM7.54688 23.0345V23.2574L3.08882 21.0284V20.8055L7.54688 23.0345ZM7.54688 23.7775V24.0004L3.08882 21.7714V21.5485L7.54688 23.7775ZM7.54688 24.5206V24.7435L3.08882 22.5144V22.2915L7.54688 24.5206Z" fill="#E5E5E5"/>
<path opacity="0.5" d="M15.3477 20.2852V20.6567L14.6046 21.0282V20.6567L15.3477 20.2852Z" fill="#2D3134"/>
<path opacity="0.5" d="M14.6046 21.1764L15.3477 20.8049V20.6562L14.6046 21.0278V21.1764Z" fill="white"/>
<path d="M4.94481 17.0144C5.01911 16.9401 5.09341 16.9401 5.16771 17.0144L7.99115 20.2093C8.06545 20.2836 8.06545 20.3579 7.99115 20.4322C7.91685 20.5065 7.84255 20.5065 7.76825 20.4322L7.02524 19.5406V20.2836H6.80234V19.3177L4.94481 17.163C4.87051 17.163 4.87051 17.0144 4.94481 17.0144ZM2.26998 15.5284C2.34428 15.4541 2.41858 15.4541 2.49288 15.5284L5.31632 18.7233C5.39062 18.7976 5.39062 18.8719 5.31632 18.9462C5.24201 19.0205 5.16771 19.0205 5.09341 18.9462L4.4247 18.2032V19.0205H4.2018V17.9803L2.26998 15.7513C2.19568 15.677 2.19568 15.6027 2.26998 15.5284Z" fill="#2D3134"/>
<path d="M1.60156 22.2915L0.115543 21.5485V20.0625L0.858553 20.434C1.30436 20.6569 1.60156 21.1027 1.60156 21.6228V22.2915Z" fill="white"/>
<path opacity="0.3" d="M1.32258 20.9841C1.52981 21.2387 1.56881 21.5501 1.40968 21.6797C1.25056 21.8092 0.953561 21.7078 0.746326 21.4532C0.539091 21.1986 0.500092 20.8872 0.659219 20.7577C0.818346 20.6281 1.11534 20.7295 1.32258 20.9841Z" fill="#2D3134"/>
<path opacity="0.3" d="M0.951482 20.9841C1.15872 21.2387 1.19772 21.5501 1.03859 21.6797C0.879463 21.8092 0.582468 21.7078 0.375232 21.4532C0.167997 21.1986 0.128998 20.8872 0.288125 20.7577C0.447252 20.6281 0.744247 20.7295 0.951482 20.9841Z" fill="#2D3134"/>
<path opacity="0.3" d="M1.60156 22.2915L0.115543 21.5485V20.0625L1.60156 22.2915Z" fill="white"/>
<path d="M10.5195 26.7478L9.03351 26.0048V25.3361C9.03351 24.9646 9.40502 24.7417 9.77652 24.8903L10.5195 25.2618V26.7478Z" fill="white"/>
<path opacity="0.3" d="M9.86945 25.4451C10.0767 25.6997 10.1157 26.0111 9.95656 26.1406C9.79743 26.2701 9.50044 26.1687 9.2932 25.9141C9.08597 25.6595 9.04697 25.3481 9.20609 25.2186C9.36522 25.0891 9.66222 25.1905 9.86945 25.4451Z" fill="#2D3134"/>
<path opacity="0.3" d="M10.2405 25.4451C10.4478 25.6997 10.4868 26.0111 10.3277 26.1406C10.1685 26.2701 9.87153 26.1687 9.6643 25.9141C9.45706 25.6595 9.41806 25.3481 9.57719 25.2186C9.73631 25.0891 10.0333 25.1905 10.2405 25.4451Z" fill="#2D3134"/>
<path opacity="0.3" d="M10.5195 26.7477L9.03351 26.0047L10.5195 25.2617V26.7477Z" fill="white"/>
<path opacity="0.06" d="M12.0029 17.8345L16.4609 15.6055V24.0015C16.4609 24.2244 16.1637 24.373 15.9408 24.2244C15.0492 23.4814 13.4889 24.0015 12.3744 25.3389C12.1515 25.5618 12.0029 25.7847 11.9286 26.0819L12.0029 26.0076V27.4936L10.5169 28.2366V22.2926L12.0029 17.8345Z" fill="black"/>
<path opacity="0.39" d="M1.60177 12.6328L12.0039 17.8339L10.5179 22.2919V28.236L0.115752 23.0349V17.0909L1.60177 12.6328Z" fill="black"/>
</svg>
