<svg width="50" height="48" viewBox="0 0 50 48" fill="none" xmlns="http://www.w3.org/2000/svg">
<g filter="url(#filter0_d_1937_14274)">
<path d="M33.3984 22.162V25.0376L31.5066 24.0539V21.2539L33.3984 22.162Z" fill="#2D3134"/>
<path opacity="0.39" d="M33.3984 22.162V25.0376L31.5066 24.0539V21.2539L33.3984 22.162Z" fill="black"/>
<path d="M17.5834 28.1375C18.1131 27.8348 18.6428 27.8348 19.0212 27.9861L20.0807 28.5159C20.5347 28.6672 20.7617 29.1212 20.7617 29.7266C20.7617 30.8618 19.778 32.2996 18.6428 32.905C18.0374 33.2077 17.5077 33.2077 17.1294 33.0563C17.1294 33.0563 16.0699 32.5266 15.9942 32.4509C15.6159 32.2239 15.4645 31.8455 15.4645 31.3158C15.4645 30.105 16.4483 28.6672 17.5834 28.1375Z" fill="#2D3134"/>
<path opacity="0.39" d="M17.1289 32.9855C16.9776 32.9098 16.0695 32.4557 15.9938 32.4557C15.6154 32.2287 15.4641 31.8503 15.4641 31.3206C15.4641 30.8666 15.6154 30.3369 15.8424 29.8828L16.9019 30.4125C16.6749 30.8666 16.5235 31.3963 16.5235 31.8503C16.5235 32.3801 16.7505 32.8341 17.1289 32.9855Z" fill="black"/>
<path d="M17.0561 31.5482C17.0561 32.4562 17.7371 32.7589 18.6452 32.3049C19.5533 31.8508 20.2344 30.7914 20.2344 29.8833C20.2344 28.9752 19.5533 28.6725 18.6452 29.1266C17.7371 29.5806 17.0561 30.6401 17.0561 31.5482Z" fill="#999999"/>
<path opacity="0.15" d="M18.4939 32.3023C19.402 31.8483 20.083 30.7888 20.083 29.8807C20.083 29.4267 19.9317 29.124 19.629 28.9727C20.0074 29.0483 20.2344 29.4267 20.2344 29.8807C20.2344 30.7888 19.5533 31.8483 18.6452 32.3023C18.1912 32.5294 17.8128 32.5293 17.5101 32.378C17.8128 32.5293 18.1155 32.4537 18.4939 32.3023Z" fill="black"/>
<path d="M17.8097 31.0162C17.8097 31.3946 18.1124 31.5459 18.4908 31.3189C18.8692 31.0919 19.1719 30.7135 19.1719 30.3351C19.1719 29.9568 18.8692 29.8054 18.4908 30.0324C18.1124 30.2595 17.8097 30.6378 17.8097 31.0162Z" fill="#2D3134"/>
<path opacity="0.39" d="M17.8097 31.0162C17.8097 31.3946 18.1124 31.5459 18.4908 31.3189C18.8692 31.0919 19.1719 30.7135 19.1719 30.3351C19.1719 29.9568 18.8692 29.8054 18.4908 30.0324C18.1124 30.2595 17.8097 30.6378 17.8097 31.0162Z" fill="black"/>
<path d="M17.9621 31.0904C17.9621 31.4688 18.2648 31.6202 18.6432 31.3931C19.0215 31.2418 19.3242 30.7877 19.3242 30.4094C19.3242 30.031 19.0215 29.8796 18.6432 30.1067C18.2648 30.258 17.9621 30.7121 17.9621 31.0904Z" fill="#2D3134"/>
<path opacity="0.06" d="M16.524 31.8496C16.524 32.9847 17.5077 33.5144 18.6428 32.909C19.778 32.3036 20.7617 30.8658 20.7617 29.7307C20.7617 28.5956 19.778 28.0659 18.6428 28.6712C17.5077 29.201 16.524 30.6388 16.524 31.8496Z" fill="black"/>
<path d="M30.0717 21.8562C30.6014 21.5535 31.1311 21.5535 31.5095 21.7049L32.5689 22.2346C32.9473 22.386 33.25 22.84 33.25 23.4454C33.25 24.5805 32.2662 26.0183 31.1311 26.6237C30.5257 26.9264 29.996 26.9264 29.6176 26.7751C29.6176 26.7751 28.5582 26.2453 28.4825 26.1697C28.1041 25.9426 27.9528 25.5643 27.9528 25.0346C27.9528 23.8994 28.9366 22.4616 30.0717 21.8562Z" fill="#2D3134"/>
<path opacity="0.39" d="M29.6172 26.7784C29.4658 26.7028 28.5577 26.2487 28.4821 26.2487C28.1037 26.0217 27.9524 25.6433 27.9524 25.1136C27.9524 24.6595 28.1037 24.1298 28.3307 23.6758L29.3902 24.2055C29.1631 24.6595 29.0118 25.1893 29.0118 25.6433C29.0118 26.173 29.2388 26.5514 29.6172 26.7784Z" fill="black"/>
<path d="M29.5404 25.3411C29.5404 26.2492 30.2215 26.5519 31.1296 26.0979C32.0377 25.6438 32.7188 24.5844 32.7188 23.6763C32.7188 22.7682 32.0377 22.4655 31.1296 22.9195C30.2215 23.3736 29.5404 24.433 29.5404 25.3411Z" fill="#999999"/>
<path opacity="0.15" d="M30.9782 26.0211C31.8863 25.567 32.5674 24.5076 32.5674 23.5995C32.5674 23.1455 32.4161 22.8428 32.1134 22.6914C32.4917 22.7671 32.7188 23.1455 32.7188 23.5995C32.7188 24.5076 32.0377 25.567 31.1296 26.0211C30.6755 26.2481 30.2972 26.2481 29.9945 26.0968C30.2972 26.2481 30.5999 26.2481 30.9782 26.0211Z" fill="black"/>
<path d="M30.298 24.8131C30.298 25.1915 30.6007 25.3428 30.9791 25.1158C31.3575 24.9644 31.6602 24.5104 31.6602 24.132C31.6602 23.7536 31.3575 23.6023 30.9791 23.8293C30.6007 23.9807 30.298 24.4347 30.298 24.8131Z" fill="#2D3134"/>
<path opacity="0.39" d="M30.298 24.8131C30.298 25.1915 30.6007 25.3428 30.9791 25.1158C31.3575 24.9644 31.6602 24.5104 31.6602 24.132C31.6602 23.7536 31.3575 23.6023 30.9791 23.8293C30.6007 23.9807 30.298 24.4347 30.298 24.8131Z" fill="black"/>
<path d="M30.4504 24.8131C30.4504 25.1915 30.7531 25.3428 31.1314 25.1158C31.5098 24.8888 31.8125 24.5104 31.8125 24.132C31.8125 23.7536 31.5098 23.6023 31.1314 23.8293C30.7531 24.0563 30.4504 24.5104 30.4504 24.8131Z" fill="#2D3134"/>
<path opacity="0.06" d="M29.0122 25.5683C29.0122 26.7034 29.996 27.2332 31.1311 26.6278C32.2662 26.0224 33.25 24.5846 33.25 23.4494C33.25 22.3143 32.2662 21.7846 31.1311 22.39C29.996 22.9954 29.0122 24.4332 29.0122 25.5683Z" fill="black"/>
<path d="M24.5462 4L35.1406 9.2972V20.8754L21.5192 27.6861L10.9248 22.1618V10.8107L24.5462 4Z" fill="#E3D03D"/>
<path d="M35.1406 19.8945V21.408L21.5192 28.2187V26.7052L35.1406 19.8945ZM10.9248 21.408V22.9215L21.5192 28.2187V26.7052L10.9248 21.408Z" fill="#2D3134"/>
<path opacity="0.06" d="M35.1406 9.30078V21.4087L21.5192 28.2194V16.1115L35.1406 9.30078Z" fill="black"/>
<path opacity="0.39" d="M10.9251 10.8086V22.9165L21.5195 28.2137V16.1058L10.9251 10.8086Z" fill="black"/>
<path d="M5.62685 16.864L10.1673 14.5938L20.7617 19.891V28.4422C20.7617 28.6692 20.459 28.8205 20.232 28.6692C19.3239 27.9124 17.7347 28.4422 16.5996 29.8043C15.9186 30.6367 15.6159 31.5448 15.6159 32.3015L14.7078 32.7556L4.11337 27.4584V21.4044L5.62685 16.864Z" fill="#E5E5E5"/>
<path d="M14.4065 26.3235L15.693 22.5398C15.7686 22.3885 15.693 22.3128 15.5416 22.2371L6.08233 17.5453C5.93098 17.4696 5.77963 17.5453 5.70396 17.6967L4.49317 21.2534C4.4175 21.4047 4.49317 21.4804 4.64452 21.5561L14.0281 26.4749C14.1795 26.5506 14.4065 26.4749 14.4065 26.3235Z" fill="#3399CC"/>
<path opacity="0.15" d="M12.6641 20.7993L6.15607 17.5453C6.00472 17.4696 5.85337 17.5453 5.7777 17.6967L4.64258 21.0263L12.6641 20.7993Z" fill="black"/>
<path d="M4.56958 21.2544L4.64526 21.0273C4.64526 21.1787 4.64526 21.2544 4.79661 21.33L14.1802 26.2489C14.3316 26.3245 14.4829 26.2489 14.5586 26.0975L14.4829 26.3245C14.4072 26.4759 14.2559 26.5516 14.1045 26.4759L4.72093 21.5571C4.56958 21.4814 4.49391 21.4057 4.56958 21.2544Z" fill="#2D3134"/>
<path d="M12.0586 25.9455L6.76139 23.2969V27.686L12.0586 30.3346V25.9455Z" fill="white"/>
<path d="M11.6836 29.7254L7.14313 27.4551V23.8984L11.6836 26.1687V29.7254Z" fill="#2D3134"/>
<path d="M4.11476 27.4588V25.9453L14.7092 31.2425V32.756L4.11476 27.4588ZM16.2227 31.9993L14.7092 32.756V31.2425L16.2227 30.4858V31.9993Z" fill="#2D3134"/>
<path d="M11.6836 29.7312V30.4879L7.14313 28.2177V27.4609L11.6836 29.7312Z" fill="white"/>
<path d="M16.6005 22.3894L19.4761 20.9516C19.5518 20.8759 19.7031 20.9516 19.7031 21.1029V23.3731C19.7031 23.5245 19.6274 23.6758 19.4761 23.6758L18.4923 24.2056C18.4167 24.2812 18.341 24.2812 18.2653 24.3569L17.2815 25.5677H17.2059L15.541 26.4001C15.4654 26.4758 15.314 26.3244 15.3897 26.2488L16.6762 22.465C16.5248 22.465 16.5248 22.3894 16.6005 22.3894Z" fill="#3399CC"/>
<path opacity="0.15" d="M15.2359 26.1731L16.7494 25.4163H16.825L17.8088 24.2056C17.8845 24.1299 17.9602 24.0542 18.0358 24.0542L19.0196 23.5245C19.171 23.4488 19.2466 23.3731 19.2466 23.2218V21.0272L19.398 20.9516C19.4737 20.8759 19.625 20.9516 19.625 21.1029V23.3731C19.625 23.5245 19.5493 23.6758 19.398 23.6758L18.4142 24.2056C18.3385 24.2812 18.2629 24.2812 18.1872 24.3569L17.2034 25.5677H17.1277L15.4629 26.4001C15.3116 26.4758 15.2359 26.4001 15.2359 26.1731Z" fill="black"/>
<path d="M14.7076 29.7295V31.243L15.0859 31.0916V29.5781L14.7076 29.7295Z" fill="#FFCC00"/>
<path d="M11.6836 26.7038V26.9308L7.14313 24.6606V24.4336L11.6836 26.7038ZM11.6836 27.4606V27.6876L7.14313 25.4174V25.1903L11.6836 27.4606ZM11.6836 28.2173V28.4443L7.14313 26.1741V25.9471L11.6836 28.2173ZM11.6836 28.9741V29.2011L7.14313 26.9308V26.7038L11.6836 28.9741Z" fill="#E5E5E5"/>
<path opacity="0.5" d="M19.625 24.6562V25.0346L18.8683 25.413V25.0346L19.625 24.6562Z" fill="#2D3134"/>
<path opacity="0.5" d="M18.8683 25.5688L19.625 25.1904V25.0391L18.8683 25.4174V25.5688Z" fill="white"/>
<path d="M9.032 21.3281C9.10768 21.2524 9.18335 21.2524 9.25903 21.3281L12.1347 24.5821C12.2103 24.6577 12.2103 24.7334 12.1347 24.8091C12.059 24.8847 11.9833 24.8847 11.9076 24.8091L11.1509 23.901V24.6577H10.9239V23.674L9.032 21.4794C8.95633 21.4794 8.95633 21.3281 9.032 21.3281ZM6.30773 19.8146C6.3834 19.7389 6.45908 19.7389 6.53475 19.8146L9.41038 23.0686C9.48605 23.1442 9.48605 23.2199 9.41038 23.2956C9.3347 23.3713 9.25903 23.3713 9.18335 23.2956L8.50228 22.5388V23.3713H8.27526V22.3118L6.30773 20.0416C6.23206 19.9659 6.23206 19.8902 6.30773 19.8146Z" fill="#2D3134"/>
<path d="M5.62891 26.7038L4.11542 25.9471V24.4336L4.87216 24.812C5.32621 25.039 5.62891 25.493 5.62891 26.0228V26.7038Z" fill="white"/>
<path opacity="0.3" d="M5.34798 25.3707C5.55904 25.63 5.59876 25.9472 5.43669 26.0791C5.27462 26.211 4.97214 26.1077 4.76107 25.8484C4.55001 25.5891 4.51029 25.272 4.67236 25.1401C4.83443 25.0081 5.13691 25.1114 5.34798 25.3707Z" fill="#2D3134"/>
<path opacity="0.3" d="M4.96907 25.3707C5.18013 25.63 5.21985 25.9472 5.05779 26.0791C4.89572 26.211 4.59323 26.1077 4.38217 25.8484C4.1711 25.5891 4.13138 25.272 4.29345 25.1401C4.45552 25.0081 4.758 25.1114 4.96907 25.3707Z" fill="#2D3134"/>
<path opacity="0.3" d="M5.62891 26.7038L4.11542 25.9471V24.4336L5.62891 26.7038Z" fill="white"/>
<path d="M14.707 31.24L13.1935 30.4833V29.8022C13.1935 29.4239 13.5719 29.1968 13.9503 29.3482L14.707 29.7266V31.24Z" fill="white"/>
<path opacity="0.3" d="M14.0472 29.9137C14.2583 30.173 14.298 30.4901 14.1359 30.6221C13.9738 30.754 13.6714 30.6507 13.4603 30.3914C13.2492 30.1321 13.2095 29.8149 13.3716 29.683C13.5336 29.5511 13.8361 29.6544 14.0472 29.9137Z" fill="#2D3134"/>
<path opacity="0.3" d="M14.4261 29.9137C14.6372 30.173 14.6769 30.4901 14.5148 30.6221C14.3528 30.754 14.0503 30.6507 13.8392 30.3914C13.6281 30.1321 13.5884 29.8149 13.7505 29.683C13.9126 29.5511 14.215 29.6544 14.4261 29.9137Z" fill="#2D3134"/>
<path opacity="0.3" d="M14.707 31.244L13.1935 30.4872L14.707 29.7305V31.244Z" fill="white"/>
<path opacity="0.06" d="M16.2213 22.1648L20.7617 19.8945V28.4457C20.7617 28.6728 20.459 28.8241 20.232 28.6728C19.3239 27.916 17.7347 28.4457 16.5996 29.8079C16.3726 30.0349 16.2213 30.2619 16.1456 30.5646L16.2213 30.4889V32.0024L14.7078 32.7592V26.7052L16.2213 22.1648Z" fill="black"/>
<path opacity="0.39" d="M5.62825 16.8672L16.2227 22.1644L14.7092 26.7049V32.7588L4.11476 27.4616V21.4076L5.62825 16.8672Z" fill="black"/>
</g>
<defs>
<filter id="filter0_d_1937_14274" x="0.113281" y="0" width="49.0273" height="47.1641" filterUnits="userSpaceOnUse" color-interpolation-filters="sRGB">
<feFlood flood-opacity="0" result="BackgroundImageFix"/>
<feColorMatrix in="SourceAlpha" type="matrix" values="0 0 0 0 0 0 0 0 0 0 0 0 0 0 0 0 0 0 127 0" result="hardAlpha"/>
<feOffset dx="5" dy="5"/>
<feGaussianBlur stdDeviation="4.5"/>
<feColorMatrix type="matrix" values="0 0 0 0 0.739062 0 0 0 0 0.739062 0 0 0 0 0.739062 0 0 0 0.25 0"/>
<feBlend mode="normal" in2="BackgroundImageFix" result="effect1_dropShadow_1937_14274"/>
<feBlend mode="normal" in="SourceGraphic" in2="effect1_dropShadow_1937_14274" result="shape"/>
</filter>
</defs>
</svg>
