<svg width="50" height="48" viewBox="0 0 50 48" fill="none" xmlns="http://www.w3.org/2000/svg">
<g filter="url(#filter0_d_1937_14323)">
<path d="M34.0078 22.5322V25.467L32.077 24.463V21.6055L34.0078 22.5322Z" fill="#2D3134"/>
<path opacity="0.39" d="M34.0078 22.5322V25.467L32.077 24.463V21.6055L34.0078 22.5322Z" fill="black"/>
<path d="M17.8618 28.6387C18.4024 28.3298 18.943 28.3298 19.3292 28.4843L20.4104 29.0249C20.8738 29.1794 21.1055 29.6427 21.1055 30.2606C21.1055 31.4191 20.1015 32.8865 18.943 33.5043C18.3251 33.8132 17.7845 33.8132 17.3984 33.6588C17.3984 33.6588 16.3171 33.1181 16.2399 33.0409C15.8537 32.8092 15.6993 32.4231 15.6993 31.8824C15.6993 30.6467 16.7033 29.1794 17.8618 28.6387Z" fill="#2D3134"/>
<path opacity="0.39" d="M17.3984 33.5766C17.244 33.4994 16.3172 33.036 16.24 33.036C15.8538 32.8043 15.6993 32.4182 15.6993 31.8775C15.6993 31.4142 15.8538 30.8735 16.0855 30.4102L17.1667 30.9508C16.935 31.4142 16.7806 31.9548 16.7806 32.4182C16.7806 32.9588 17.0123 33.4222 17.3984 33.5766Z" fill="black"/>
<path d="M17.3227 32.1101C17.3227 33.0369 18.0178 33.3458 18.9446 32.8824C19.8713 32.419 20.5664 31.3378 20.5664 30.411C20.5664 29.4842 19.8713 29.1753 18.9446 29.6387C18.0178 30.1021 17.3227 31.1833 17.3227 32.1101Z" fill="#999999"/>
<path opacity="0.15" d="M18.7901 32.8826C19.7169 32.4192 20.4119 31.3379 20.4119 30.4112C20.4119 29.9478 20.2575 29.6388 19.9486 29.4844C20.3347 29.5616 20.5664 29.9478 20.5664 30.4112C20.5664 31.3379 19.8713 32.4192 18.9446 32.8826C18.4812 33.1142 18.095 33.1142 17.7861 32.9598C18.095 33.1142 18.4039 33.037 18.7901 32.8826Z" fill="black"/>
<path d="M18.0942 31.5699C18.0942 31.9561 18.4031 32.1105 18.7893 31.8788C19.1755 31.6471 19.4844 31.261 19.4844 30.8748C19.4844 30.4887 19.1755 30.3342 18.7893 30.5659C18.4031 30.7976 18.0942 31.1837 18.0942 31.5699Z" fill="#2D3134"/>
<path opacity="0.39" d="M18.0942 31.5699C18.0942 31.9561 18.4031 32.1105 18.7893 31.8788C19.1755 31.6471 19.4844 31.261 19.4844 30.8748C19.4844 30.4887 19.1755 30.3342 18.7893 30.5659C18.4031 30.7976 18.0942 31.1837 18.0942 31.5699Z" fill="black"/>
<path d="M18.2505 31.648C18.2505 32.0342 18.5594 32.1886 18.9455 31.9569C19.3317 31.8025 19.6406 31.3391 19.6406 30.9529C19.6406 30.5668 19.3317 30.4123 18.9455 30.644C18.5594 30.7985 18.2505 31.2619 18.2505 31.648Z" fill="#2D3134"/>
<path opacity="0.06" d="M16.7805 32.4202C16.7805 33.5786 17.7845 34.1193 18.943 33.5014C20.1015 32.8836 21.1055 31.4162 21.1055 30.2577C21.1055 29.0992 20.1015 28.5586 18.943 29.1765C17.7845 29.7171 16.7805 31.1845 16.7805 32.4202Z" fill="black"/>
<path d="M30.6079 22.2286C31.1485 21.9197 31.6891 21.9197 32.0752 22.0741L33.1565 22.6147C33.5426 22.7692 33.8516 23.2326 33.8516 23.8504C33.8516 25.0089 32.8476 26.4763 31.6891 27.0941C31.0712 27.4031 30.5306 27.4031 30.1445 27.2486C30.1445 27.2486 29.0632 26.708 28.986 26.6308C28.5998 26.3991 28.4454 26.0129 28.4454 25.4723C28.4454 24.3138 29.4494 22.8464 30.6079 22.2286Z" fill="#2D3134"/>
<path opacity="0.39" d="M30.1445 27.2485C29.9901 27.1713 29.0633 26.7079 28.9861 26.7079C28.5999 26.4762 28.4454 26.09 28.4454 25.5494C28.4454 25.086 28.5999 24.5454 28.8316 24.082L29.9128 24.6227C29.6811 25.086 29.5267 25.6267 29.5267 26.09C29.5267 26.6307 29.7584 27.0168 30.1445 27.2485Z" fill="black"/>
<path d="M30.0649 25.782C30.0649 26.7087 30.76 27.0177 31.6867 26.5543C32.6135 26.0909 33.3086 25.0096 33.3086 24.0829C33.3086 23.1561 32.6135 22.8472 31.6867 23.3106C30.76 23.7739 30.0649 24.8552 30.0649 25.782Z" fill="#999999"/>
<path opacity="0.15" d="M31.5323 26.4763C32.459 26.0129 33.1541 24.9317 33.1541 24.0049C33.1541 23.5415 32.9997 23.2326 32.6907 23.0781C33.0769 23.1554 33.3086 23.5415 33.3086 24.0049C33.3086 24.9317 32.6135 26.0129 31.6867 26.4763C31.2233 26.708 30.8372 26.708 30.5283 26.5535C30.8372 26.708 31.1461 26.708 31.5323 26.4763Z" fill="black"/>
<path d="M30.8364 25.2418C30.8364 25.6279 31.1453 25.7824 31.5315 25.5507C31.9176 25.3962 32.2266 24.9328 32.2266 24.5467C32.2266 24.1605 31.9176 24.0061 31.5315 24.2378C31.1453 24.3922 30.8364 24.8556 30.8364 25.2418Z" fill="#2D3134"/>
<path opacity="0.39" d="M30.8364 25.2418C30.8364 25.6279 31.1453 25.7824 31.5315 25.5507C31.9176 25.3962 32.2266 24.9328 32.2266 24.5467C32.2266 24.1605 31.9176 24.0061 31.5315 24.2378C31.1453 24.3922 30.8364 24.8556 30.8364 25.2418Z" fill="black"/>
<path d="M30.9927 25.2418C30.9927 25.6279 31.3016 25.7824 31.6877 25.5507C32.0739 25.319 32.3828 24.9328 32.3828 24.5467C32.3828 24.1605 32.0739 24.0061 31.6877 24.2378C31.3016 24.4695 30.9927 24.9328 30.9927 25.2418Z" fill="#2D3134"/>
<path opacity="0.06" d="M29.5266 26.01C29.5266 27.1685 30.5306 27.7091 31.6891 27.0913C32.8476 26.4734 33.8516 25.006 33.8516 23.8475C33.8516 22.6891 32.8476 22.1485 31.6891 22.7663C30.5306 23.3842 29.5266 24.8515 29.5266 26.01Z" fill="black"/>
<path d="M24.9689 4L35.7812 9.40619V21.2226L21.8796 28.1734L11.0672 22.5355V10.9508L24.9689 4Z" fill="#D03E3E"/>
<path d="M35.7812 20.2188V21.7634L21.8796 28.7142V27.1696L35.7812 20.2188ZM11.0672 21.7634V23.308L21.8796 28.7142V27.1696L11.0672 21.7634Z" fill="#2D3134"/>
<path opacity="0.06" d="M35.7812 9.41016V21.7672L21.8796 28.718V16.361L35.7812 9.41016Z" fill="black"/>
<path opacity="0.39" d="M11.0665 10.9492V23.3062L21.8789 28.7124V16.3554L11.0665 10.9492Z" fill="black"/>
<path d="M5.65922 17.1294L10.2931 14.8125L21.1055 20.2187V28.9458C21.1055 29.1775 20.7965 29.332 20.5648 29.1775C19.6381 28.4052 18.0162 28.9458 16.8577 30.336C16.1627 31.1855 15.8537 32.1123 15.8537 32.8846L14.927 33.348L4.11459 27.9418V21.7633L5.65922 17.1294Z" fill="#E5E5E5"/>
<path d="M14.6216 26.7821L15.9345 22.9205C16.0118 22.7661 15.9345 22.6888 15.7801 22.6116L6.12618 17.8233C5.97171 17.746 5.81725 17.8233 5.74002 17.9777L4.50432 21.6076C4.42709 21.7621 4.50432 21.8393 4.65878 21.9165L14.2355 26.9366C14.3899 27.0138 14.6216 26.9366 14.6216 26.7821Z" fill="#3399CC"/>
<path opacity="0.15" d="M12.8438 21.1442L6.20186 17.8233C6.0474 17.746 5.89294 17.8233 5.81571 17.9777L4.65724 21.3759L12.8438 21.1442Z" fill="black"/>
<path d="M4.57891 21.6106L4.65615 21.3789C4.65615 21.5334 4.65615 21.6106 4.81061 21.6878L14.3873 26.7079C14.5417 26.7851 14.6962 26.7079 14.7734 26.5534L14.6962 26.7851C14.619 26.9396 14.4645 27.0168 14.3101 26.9396L4.73337 21.9195C4.57891 21.8423 4.50168 21.7651 4.57891 21.6106Z" fill="#2D3134"/>
<path d="M12.2266 26.3945L6.82038 23.6914V28.1708L12.2266 30.8739V26.3945Z" fill="white"/>
<path d="M11.8398 30.2554L7.20597 27.9385V24.3086L11.8398 26.6255V30.2554Z" fill="#2D3134"/>
<path d="M4.11565 27.9392V26.3945L14.928 31.8007V33.3453L4.11565 27.9392ZM16.4727 32.573L14.928 33.3453V31.8007L16.4727 31.0284V32.573Z" fill="#2D3134"/>
<path d="M11.8398 30.2583V31.0307L7.20597 28.7137V27.9414L11.8398 30.2583Z" fill="white"/>
<path d="M16.857 22.7672L19.7917 21.2998C19.869 21.2226 20.0234 21.2998 20.0234 21.4543V23.7712C20.0234 23.9257 19.9462 24.0802 19.7917 24.0802L18.7877 24.6208C18.7105 24.698 18.6333 24.698 18.556 24.7752L17.552 26.0109H17.4748L15.7757 26.8605C15.6985 26.9377 15.544 26.7832 15.6213 26.706L16.9342 22.8445C16.7797 22.8445 16.7797 22.7672 16.857 22.7672Z" fill="#3399CC"/>
<path opacity="0.15" d="M15.4698 26.6288L17.0144 25.8565H17.0917L18.0957 24.6208C18.1729 24.5435 18.2501 24.4663 18.3274 24.4663L19.3314 23.9257C19.4858 23.8485 19.5631 23.7712 19.5631 23.6168V21.3771L19.7175 21.2998C19.7948 21.2226 19.9492 21.2998 19.9492 21.4543V23.7712C19.9492 23.9257 19.872 24.0802 19.7175 24.0802L18.7135 24.6208C18.6363 24.698 18.5591 24.698 18.4818 24.7752L17.4778 26.0109H17.4006L15.7015 26.8605C15.547 26.9377 15.4698 26.8605 15.4698 26.6288Z" fill="black"/>
<path d="M14.9302 30.2599V31.8046L15.3164 31.6501V30.1055L14.9302 30.2599Z" fill="#FFCC00"/>
<path d="M11.8398 27.1685V27.4002L7.20597 25.0833V24.8516L11.8398 27.1685ZM11.8398 27.9408V28.1725L7.20597 25.8556V25.6239L11.8398 27.9408ZM11.8398 28.7131V28.9448L7.20597 26.6279V26.3962L11.8398 28.7131ZM11.8398 29.4854V29.7171L7.20597 27.4002V27.1685L11.8398 29.4854Z" fill="#E5E5E5"/>
<path opacity="0.5" d="M19.9492 25.082V25.4682L19.1769 25.8543V25.4682L19.9492 25.082Z" fill="#2D3134"/>
<path opacity="0.5" d="M19.1769 26.0094L19.9492 25.6232V25.4688L19.1769 25.8549V26.0094Z" fill="white"/>
<path d="M9.13497 21.6846C9.2122 21.6073 9.28943 21.6073 9.36666 21.6846L12.3015 25.0055C12.3787 25.0828 12.3787 25.16 12.3015 25.2372C12.2242 25.3144 12.147 25.3144 12.0698 25.2372L11.2974 24.3104V25.0828H11.0658V24.0787L9.13497 21.839C9.05774 21.839 9.05774 21.6846 9.13497 21.6846ZM6.35465 20.14C6.43188 20.0627 6.50911 20.0627 6.58634 20.14L9.52113 23.4609C9.59836 23.5381 9.59836 23.6154 9.52113 23.6926C9.4439 23.7698 9.36667 23.7698 9.28943 23.6926L8.59435 22.9203V23.7698H8.36266V22.6886L6.35465 20.3716C6.27742 20.2944 6.27742 20.2172 6.35465 20.14Z" fill="#2D3134"/>
<path d="M5.66406 27.1685L4.11944 26.3962V24.8516L4.89175 25.2377C5.35514 25.4694 5.66406 25.9328 5.66406 26.4734V27.1685Z" fill="white"/>
<path opacity="0.3" d="M5.37182 25.812C5.58723 26.0766 5.62776 26.4003 5.46236 26.5349C5.29696 26.6695 4.98825 26.5641 4.77284 26.2995C4.55744 26.0348 4.5169 25.7112 4.6823 25.5765C4.8477 25.4419 5.15641 25.5473 5.37182 25.812Z" fill="#2D3134"/>
<path opacity="0.3" d="M4.98901 25.812C5.20442 26.0766 5.24495 26.4003 5.07955 26.5349C4.91415 26.6695 4.60544 26.5641 4.39003 26.2995C4.17462 26.0348 4.13409 25.7112 4.29949 25.5765C4.46489 25.4419 4.7736 25.5473 4.98901 25.812Z" fill="#2D3134"/>
<path opacity="0.3" d="M5.66406 27.1685L4.11944 26.3962V24.8516L5.66406 27.1685Z" fill="white"/>
<path d="M14.9297 31.8034L13.3851 31.0311V30.336C13.3851 29.9498 13.7712 29.7181 14.1574 29.8726L14.9297 30.2588V31.8034Z" fill="white"/>
<path opacity="0.3" d="M14.2546 30.4487C14.47 30.7133 14.5106 31.037 14.3452 31.1716C14.1798 31.3063 13.8711 31.2009 13.6557 30.9362C13.4402 30.6716 13.3997 30.3479 13.5651 30.2133C13.7305 30.0786 14.0392 30.184 14.2546 30.4487Z" fill="#2D3134"/>
<path opacity="0.3" d="M14.6414 30.4487C14.8568 30.7133 14.8973 31.037 14.7319 31.1716C14.5665 31.3063 14.2578 31.2009 14.0424 30.9362C13.827 30.6716 13.7864 30.3479 13.9518 30.2133C14.1172 30.0786 14.4259 30.184 14.6414 30.4487Z" fill="#2D3134"/>
<path opacity="0.3" d="M14.9297 31.8024L13.3851 31.0301L14.9297 30.2578V31.8024Z" fill="white"/>
<path opacity="0.06" d="M16.4716 22.5357L21.1055 20.2188V28.9459C21.1055 29.1776 20.7965 29.332 20.5648 29.1776C19.6381 28.4053 18.0162 28.9459 16.8577 30.336C16.6261 30.5677 16.4716 30.7994 16.3944 31.1084L16.4716 31.0311V32.5757L14.927 33.3481V27.1696L16.4716 22.5357Z" fill="black"/>
<path opacity="0.39" d="M5.66028 17.1289L16.4727 22.5351L14.928 27.169V33.3475L4.11565 27.9413V21.7628L5.66028 17.1289Z" fill="black"/>
</g>
<defs>
<filter id="filter0_d_1937_14323" x="0.113281" y="0" width="49.668" height="47.7617" filterUnits="userSpaceOnUse" color-interpolation-filters="sRGB">
<feFlood flood-opacity="0" result="BackgroundImageFix"/>
<feColorMatrix in="SourceAlpha" type="matrix" values="0 0 0 0 0 0 0 0 0 0 0 0 0 0 0 0 0 0 127 0" result="hardAlpha"/>
<feOffset dx="5" dy="5"/>
<feGaussianBlur stdDeviation="4.5"/>
<feColorMatrix type="matrix" values="0 0 0 0 0.739062 0 0 0 0 0.739062 0 0 0 0 0.739062 0 0 0 0.25 0"/>
<feBlend mode="normal" in2="BackgroundImageFix" result="effect1_dropShadow_1937_14323"/>
<feBlend mode="normal" in="SourceGraphic" in2="effect1_dropShadow_1937_14323" result="shape"/>
</filter>
</defs>
</svg>
