<svg width="22" height="22" viewBox="0 0 22 22" fill="none" xmlns="http://www.w3.org/2000/svg">
<path d="M15.3568 10.9991H18.6861C18.8423 10.9992 18.9959 11.0392 19.1323 11.1153C19.2687 11.1914 19.3834 11.3011 19.4654 11.434C19.5475 11.5669 19.5943 11.7185 19.6014 11.8746C19.6084 12.0306 19.5754 12.1858 19.5056 12.3255L17.6411 16.0555C17.5704 16.1968 17.4644 16.3175 17.3333 16.4057C17.2022 16.494 17.0505 16.5469 16.893 16.5592C16.7354 16.5716 16.5774 16.543 16.4341 16.4763C16.2909 16.4095 16.1673 16.3069 16.0754 16.1783L14.1284 13.4558M1.83594 17.4158H5.2826C5.62427 17.4182 5.95981 17.325 6.25135 17.1469C6.5429 16.9687 6.77886 16.7126 6.9326 16.4075L8.2526 13.7491M1.83594 19.2491V15.5825M6.41927 8.24913H6.42844M15.6831 8.29771C15.9004 8.40647 16.0656 8.59704 16.1424 8.82753C16.2192 9.05803 16.2014 9.3096 16.0929 9.52696L13.2457 15.2204C13.1918 15.3281 13.1173 15.4241 13.0263 15.503C12.9353 15.5819 12.8297 15.6421 12.7155 15.6801C12.6013 15.7182 12.4806 15.7333 12.3605 15.7247C12.2404 15.7162 12.1232 15.684 12.0155 15.6301L3.31177 11.2741C2.67958 10.9557 2.19926 10.3998 1.97593 9.72808C1.7526 9.05637 1.80444 8.32355 2.1201 7.68996L3.3851 5.13246C3.54277 4.81825 3.76079 4.53817 4.02671 4.30823C4.29264 4.07828 4.60125 3.90297 4.93493 3.79231C5.26861 3.68165 5.62083 3.63781 5.97145 3.66329C6.32208 3.68876 6.66426 3.78306 6.97844 3.9408L15.6831 8.29771Z" stroke="#414142" stroke-width="2" stroke-linecap="round" stroke-linejoin="round"/>
</svg>
