<svg width="24" height="24" viewBox="0 0 24 24" fill="none" xmlns="http://www.w3.org/2000/svg">
<path d="M10.994 4.68V8.56C10.994 8.88127 10.9305 9.19938 10.8073 9.49606C10.684 9.79275 10.5034 10.0622 10.2758 10.2889C10.0481 10.5156 9.77797 10.6951 9.48078 10.8171C9.18359 10.9392 8.86522 11.0013 8.54396 11H4.68396C4.36356 11.0019 4.04607 10.9392 3.75051 10.8155C3.45496 10.6917 3.18743 10.5096 2.96396 10.28C2.73707 10.055 2.5574 9.78697 2.43548 9.49161C2.31356 9.19625 2.25185 8.87952 2.25396 8.56V4.69C2.25395 4.0446 2.50965 3.42549 2.96508 2.96819C3.42051 2.51088 4.03856 2.25265 4.68396 2.25H8.55396C8.87402 2.25031 9.19085 2.3141 9.48609 2.43769C9.78133 2.56128 10.0491 2.74221 10.274 2.97C10.5014 3.19298 10.6823 3.45902 10.8059 3.75261C10.9295 4.04619 10.9934 4.36145 10.994 4.68ZM21.744 4.69V8.56C21.7388 9.2038 21.4814 9.81991 21.0271 10.2761C20.5728 10.7323 19.9577 10.9922 19.314 11H15.434C14.7872 10.996 14.1671 10.7416 13.704 10.29C13.4777 10.0625 13.2985 9.79258 13.1766 9.49572C13.0548 9.19886 12.9927 8.88088 12.994 8.56V4.69C12.9932 4.36977 13.0564 4.05261 13.1801 3.75722C13.3037 3.46182 13.4853 3.19416 13.714 2.97C13.9388 2.74221 14.2066 2.56128 14.5018 2.43769C14.7971 2.3141 15.1139 2.25031 15.434 2.25H19.304C19.9495 2.25523 20.5671 2.51398 21.0235 2.97044C21.48 3.4269 21.7387 4.04449 21.744 4.69ZM21.744 15.44V19.31C21.7388 19.9538 21.4814 20.5699 21.0271 21.0261C20.5728 21.4823 19.9577 21.7422 19.314 21.75H15.434C14.783 21.7566 14.1552 21.5091 13.684 21.06C13.4568 20.8331 13.277 20.5634 13.1551 20.2664C13.0332 19.9693 12.9716 19.651 12.974 19.33V15.46C12.9732 15.1398 13.0364 14.8226 13.1601 14.5272C13.2837 14.2318 13.4653 13.9642 13.694 13.74C13.9188 13.5122 14.1866 13.3313 14.4818 13.2077C14.7771 13.0841 15.0939 13.0203 15.414 13.02H19.284C19.9295 13.0252 20.5471 13.284 21.0035 13.7404C21.46 14.1969 21.7187 14.8145 21.724 15.46L21.744 15.44ZM10.994 15.45V19.32C10.9861 19.9655 10.7248 20.582 10.2665 21.0366C9.80815 21.4912 9.18949 21.7474 8.54396 21.75H4.68396C4.36448 21.7513 4.04789 21.6894 3.75248 21.5677C3.45706 21.4461 3.18865 21.2671 2.96274 21.0412C2.73683 20.8153 2.55789 20.5469 2.43624 20.2515C2.31459 19.9561 2.25264 19.6395 2.25396 19.32V15.45C2.25653 14.8045 2.51275 14.1858 2.96734 13.7275C3.42193 13.2691 4.03847 13.0079 4.68396 13H8.55396C9.20216 13.0066 9.82245 13.2648 10.284 13.72C10.7401 14.1801 10.9953 14.8021 10.994 15.45Z" fill="#A8B7FF"/>
</svg>
