<svg width="27" height="27" viewBox="0 0 27 27" fill="none" xmlns="http://www.w3.org/2000/svg">
<path d="M6.75 24.75C6.13125 24.75 5.60175 24.5299 5.1615 24.0896C4.72125 23.6494 4.50075 23.1195 4.5 22.5V4.5C4.5 3.88125 4.7205 3.35175 5.1615 2.9115C5.6025 2.47125 6.132 2.25075 6.75 2.25H15.75L22.5 9V22.5C22.5 23.1188 22.2799 23.6486 21.8396 24.0896C21.3994 24.5306 20.8695 24.7508 20.25 24.75H6.75ZM14.625 10.125V4.5H6.75V22.5H20.25V10.125H14.625Z" fill="white"/>
<path d="M14.625 12.375H12.375V17.0719L10.575 15.2719L9 16.875L13.5 21.375L18 16.875L16.3969 15.3L14.625 17.0719V12.375Z" fill="white"/>
</svg>
