<svg width="23" height="23" viewBox="0 0 23 23" fill="none" xmlns="http://www.w3.org/2000/svg">
<path d="M10.5417 0V2.875H12.4583V0H10.5417ZM7.55167 1.39917L6.19083 2.75042L8.23208 4.79167L9.58333 3.43083L7.55167 1.39917ZM15.4483 1.39917L13.4167 3.43083L14.7679 4.79167L16.8092 2.76L15.4483 1.39917ZM11.5 4.79167C10.9917 4.79167 10.5042 4.9936 10.1447 5.35304C9.78527 5.71249 9.58333 6.2 9.58333 6.70833V7.66667H6.22917C5.59667 7.66667 5.06 8.06917 4.86833 8.625L2.875 14.375V22.0417C2.875 22.2958 2.97597 22.5396 3.15569 22.7193C3.33541 22.899 3.57917 23 3.83333 23H4.79167C5.04583 23 5.28959 22.899 5.46931 22.7193C5.64903 22.5396 5.75 22.2958 5.75 22.0417V21.0833H17.25V22.0417C17.25 22.2958 17.351 22.5396 17.5307 22.7193C17.7104 22.899 17.9542 23 18.2083 23H19.1667C19.4208 23 19.6646 22.899 19.8443 22.7193C20.024 22.5396 20.125 22.2958 20.125 22.0417V14.375L18.1317 8.625C17.94 8.06917 17.4033 7.66667 16.7708 7.66667H13.4167V6.70833C13.4167 6.2 13.2147 5.71249 12.8553 5.35304C12.4958 4.9936 12.0083 4.79167 11.5 4.79167ZM6.22917 9.10417H16.7708L18.2083 13.4167H4.79167L6.22917 9.10417ZM6.22917 15.3333C6.61042 15.3333 6.97605 15.4848 7.24563 15.7544C7.51522 16.024 7.66667 16.3896 7.66667 16.7708C7.66667 17.1521 7.51522 17.5177 7.24563 17.7873C6.97605 18.0569 6.61042 18.2083 6.22917 18.2083C5.84792 18.2083 5.48228 18.0569 5.2127 17.7873C4.94312 17.5177 4.79167 17.1521 4.79167 16.7708C4.79167 16.3896 4.94312 16.024 5.2127 15.7544C5.48228 15.4848 5.84792 15.3333 6.22917 15.3333ZM16.7708 15.3333C17.1521 15.3333 17.5177 15.4848 17.7873 15.7544C18.0569 16.024 18.2083 16.3896 18.2083 16.7708C18.2083 17.1521 18.0569 17.5177 17.7873 17.7873C17.5177 18.0569 17.1521 18.2083 16.7708 18.2083C16.3896 18.2083 16.024 18.0569 15.7544 17.7873C15.4848 17.5177 15.3333 17.1521 15.3333 16.7708C15.3333 16.3896 15.4848 16.024 15.7544 15.7544C16.024 15.4848 16.3896 15.3333 16.7708 15.3333Z" fill="white"/>
</svg>
