<svg width="24" height="24" viewBox="0 0 24 24" fill="none" xmlns="http://www.w3.org/2000/svg">
<path d="M12.0469 19.9062C12.0469 20.1922 11.9333 20.4664 11.7311 20.6686C11.5289 20.8708 11.2547 20.9844 10.9688 20.9844H5.21875C4.93281 20.9844 4.65859 20.8708 4.4564 20.6686C4.25421 20.4664 4.14062 20.1922 4.14062 19.9062V4.09375C4.14062 3.80781 4.25421 3.53359 4.4564 3.3314C4.65859 3.12921 4.93281 3.01563 5.21875 3.01562H10.9688C11.2547 3.01562 11.5289 3.12921 11.7311 3.3314C11.9333 3.53359 12.0469 3.80781 12.0469 4.09375C12.0469 4.37969 11.9333 4.65391 11.7311 4.8561C11.5289 5.05829 11.2547 5.17188 10.9688 5.17188H6.29688V18.8281H10.9688C11.2547 18.8281 11.5289 18.9417 11.7311 19.1439C11.9333 19.3461 12.0469 19.6203 12.0469 19.9062ZM21.794 11.2372L18.2003 7.64348C17.9977 7.44094 17.723 7.32715 17.4366 7.32715C17.1502 7.32715 16.8755 7.44094 16.6729 7.64348C16.4704 7.84601 16.3566 8.12072 16.3566 8.40715C16.3566 8.69358 16.4704 8.96828 16.6729 9.17082L18.4258 10.9219H10.9688C10.6828 10.9219 10.4086 11.0355 10.2064 11.2376C10.0042 11.4398 9.89062 11.7141 9.89062 12C9.89062 12.2859 10.0042 12.5602 10.2064 12.7623C10.4086 12.9645 10.6828 13.0781 10.9688 13.0781H18.4258L16.672 14.831C16.4695 15.0335 16.3557 15.3082 16.3557 15.5946C16.3557 15.8811 16.4695 16.1558 16.672 16.3583C16.8746 16.5609 17.1493 16.6746 17.4357 16.6746C17.7221 16.6746 17.9968 16.5609 18.1994 16.3583L21.7931 12.7646C21.8937 12.6645 21.9735 12.5455 22.028 12.4145C22.0825 12.2835 22.1106 12.143 22.1107 12.0011C22.1108 11.8592 22.0828 11.7187 22.0285 11.5876C21.9742 11.4565 21.8945 11.3374 21.794 11.2372Z" fill="#FF4A4A"/>
</svg>
