<svg width="15" height="15" viewBox="0 0 15 15" fill="none" xmlns="http://www.w3.org/2000/svg">
<g clip-path="url(#clip0_2000_23832)">
<path d="M14.966 6.85547L14.1457 4.80469C14.0761 4.63117 13.956 4.48256 13.801 4.37809C13.646 4.27362 13.4631 4.21811 13.2762 4.21875H11.25V3.75C11.25 3.62568 11.2006 3.50645 11.1127 3.41854C11.0248 3.33064 10.9056 3.28125 10.7812 3.28125H1.875C1.62636 3.28125 1.3879 3.38002 1.21209 3.55584C1.03627 3.73165 0.9375 3.97011 0.9375 4.21875V10.7812C0.9375 11.0299 1.03627 11.2683 1.21209 11.4442C1.3879 11.62 1.62636 11.7188 1.875 11.7188H2.87109C2.97436 12.1221 3.20892 12.4795 3.5378 12.7348C3.86668 12.9901 4.27117 13.1287 4.6875 13.1287C5.10383 13.1287 5.50832 12.9901 5.8372 12.7348C6.16608 12.4795 6.40064 12.1221 6.50391 11.7188H9.43359C9.53686 12.1221 9.77142 12.4795 10.1003 12.7348C10.4292 12.9901 10.8337 13.1287 11.25 13.1287C11.6663 13.1287 12.0708 12.9901 12.3997 12.7348C12.7286 12.4795 12.9631 12.1221 13.0664 11.7188H14.0625C14.3111 11.7188 14.5496 11.62 14.7254 11.4442C14.9012 11.2683 15 11.0299 15 10.7812V7.03125C15.0002 6.971 14.9887 6.91129 14.966 6.85547ZM11.25 5.15625H13.2762L13.8387 6.5625H11.25V5.15625ZM1.875 4.21875H10.3125V7.96875H1.875V4.21875ZM4.6875 12.1875C4.50208 12.1875 4.32082 12.1325 4.16665 12.0295C4.01248 11.9265 3.89232 11.7801 3.82136 11.6088C3.75041 11.4375 3.73184 11.249 3.76801 11.0671C3.80419 10.8852 3.89348 10.7182 4.02459 10.5871C4.1557 10.456 4.32275 10.3667 4.5046 10.3305C4.68646 10.2943 4.87496 10.3129 5.04627 10.3839C5.21757 10.4548 5.36399 10.575 5.467 10.7292C5.57002 10.8833 5.625 11.0646 5.625 11.25C5.625 11.4986 5.52623 11.7371 5.35041 11.9129C5.1746 12.0887 4.93614 12.1875 4.6875 12.1875ZM9.43359 10.7812H6.50391C6.40064 10.3779 6.16608 10.0205 5.8372 9.76517C5.50832 9.50989 5.10383 9.37132 4.6875 9.37132C4.27117 9.37132 3.86668 9.50989 3.5378 9.76517C3.20892 10.0205 2.97436 10.3779 2.87109 10.7812H1.875V8.90625H10.3125V9.62754C10.0969 9.7521 9.90824 9.91823 9.75737 10.1163C9.6065 10.3143 9.49644 10.5403 9.43359 10.7812ZM11.25 12.1875C11.0646 12.1875 10.8833 12.1325 10.7292 12.0295C10.575 11.9265 10.4548 11.7801 10.3839 11.6088C10.3129 11.4375 10.2943 11.249 10.3305 11.0671C10.3667 10.8852 10.456 10.7182 10.5871 10.5871C10.7182 10.456 10.8852 10.3667 11.0671 10.3305C11.249 10.2943 11.4375 10.3129 11.6088 10.3839C11.7801 10.4548 11.9265 10.575 12.0295 10.7292C12.1325 10.8833 12.1875 11.0646 12.1875 11.25C12.1875 11.4986 12.0887 11.7371 11.9129 11.9129C11.7371 12.0887 11.4986 12.1875 11.25 12.1875ZM14.0625 10.7812H13.0664C12.9619 10.3789 12.7269 10.0226 12.3982 9.76813C12.0695 9.51365 11.6657 9.37539 11.25 9.375V7.5H14.0625V10.7812Z" fill="#414142"/>
</g>
<defs>
<clipPath id="clip0_2000_23832">
<rect width="15" height="15" fill="white"/>
</clipPath>
</defs>
</svg>
