<svg width="89" height="89" viewBox="0 0 89 89" fill="none" xmlns="http://www.w3.org/2000/svg">
<g opacity="0.2" filter="url(#filter0_d_2000_20114)">
<rect x="12" y="12" width="65" height="65" rx="32.5" fill="#5671EE"/>
</g>
<path d="M59.7986 44.5009C59.7986 52.9474 52.9513 59.7947 44.5048 59.7947C36.0582 59.7947 29.2109 52.9474 29.2109 44.5009C29.2109 36.0543 36.0582 29.207 44.5048 29.207C52.9513 29.207 59.7986 36.0543 59.7986 44.5009Z" fill="white"/>
<g clip-path="url(#clip0_2000_20114)">
<path d="M44.4974 24.918C55.3133 24.918 64.0807 33.6854 64.0807 44.5013C64.0807 55.3172 55.3133 64.0846 44.4974 64.0846C33.6815 64.0846 24.9141 55.3172 24.9141 44.5013C24.9141 33.6854 33.6815 24.918 44.4974 24.918ZM44.4974 52.3346C43.978 52.3346 43.4799 52.541 43.1126 52.9082C42.7454 53.2755 42.5391 53.7736 42.5391 54.293C42.5391 54.8124 42.7454 55.3105 43.1126 55.6777C43.4799 56.045 43.978 56.2513 44.4974 56.2513C45.0168 56.2513 45.5149 56.045 45.8821 55.6777C46.2494 55.3105 46.4557 54.8124 46.4557 54.293C46.4557 53.7736 46.2494 53.2755 45.8821 52.9082C45.5149 52.541 45.0168 52.3346 44.4974 52.3346ZM44.4974 33.7305C42.6146 33.7305 40.809 34.4784 39.4777 35.8097C38.1464 37.141 37.3984 38.9467 37.3984 40.8294C37.3984 41.3488 37.6048 41.8469 37.972 42.2142C38.3393 42.5814 38.8374 42.7878 39.3568 42.7878C39.8762 42.7878 40.3743 42.5814 40.7415 42.2142C41.1088 41.8469 41.3151 41.3488 41.3151 40.8294C41.3158 40.2518 41.4736 39.6852 41.7718 39.1905C42.0699 38.6957 42.4971 38.2915 43.0075 38.021C43.5179 37.7506 44.0923 37.6242 44.6691 37.6553C45.2459 37.6865 45.8034 37.8741 46.2817 38.198C46.76 38.5218 47.1411 38.9698 47.3842 39.4938C47.6273 40.0178 47.7231 40.5981 47.6615 41.1724C47.5999 41.7467 47.3832 42.2935 47.0345 42.754C46.6858 43.2145 46.2183 43.5715 45.6822 43.7865C44.3584 44.3153 42.5391 45.6704 42.5391 47.9284V48.418C42.5391 48.9374 42.7454 49.4355 43.1126 49.8027C43.4799 50.17 43.978 50.3763 44.4974 50.3763C45.0168 50.3763 45.5149 50.17 45.8821 49.8027C46.2494 49.4355 46.4557 48.9374 46.4557 48.418C46.4557 47.9401 46.5536 47.7012 46.9669 47.4976L47.1372 47.4192C48.6663 46.8041 49.9338 45.6762 50.7224 44.2289C51.511 42.7817 51.7716 41.1051 51.4595 39.4868C51.1474 37.8684 50.2821 36.409 49.0118 35.3588C47.7416 34.3085 46.1456 33.7329 44.4974 33.7305Z" fill="#5671EE"/>
</g>
<defs>
<filter id="filter0_d_2000_20114" x="0" y="0" width="89" height="89" filterUnits="userSpaceOnUse" color-interpolation-filters="sRGB">
<feFlood flood-opacity="0" result="BackgroundImageFix"/>
<feColorMatrix in="SourceAlpha" type="matrix" values="0 0 0 0 0 0 0 0 0 0 0 0 0 0 0 0 0 0 127 0" result="hardAlpha"/>
<feOffset/>
<feGaussianBlur stdDeviation="6"/>
<feComposite in2="hardAlpha" operator="out"/>
<feColorMatrix type="matrix" values="0 0 0 0 0 0 0 0 0 1 0 0 0 0 0.467532 0 0 0 0.12 0"/>
<feBlend mode="normal" in2="BackgroundImageFix" result="effect1_dropShadow_2000_20114"/>
<feBlend mode="normal" in="SourceGraphic" in2="effect1_dropShadow_2000_20114" result="shape"/>
</filter>
<clipPath id="clip0_2000_20114">
<rect width="47" height="47" fill="white" transform="translate(21 21)"/>
</clipPath>
</defs>
</svg>
