<svg width="16" height="16" viewBox="0 0 16 16" fill="none" xmlns="http://www.w3.org/2000/svg">
<path d="M6 7.33203C6 7.86246 6.21071 8.37117 6.58579 8.74625C6.96086 9.12132 7.46957 9.33203 8 9.33203C8.53043 9.33203 9.03914 9.12132 9.41421 8.74625C9.78929 8.37117 10 7.86246 10 7.33203C10 6.8016 9.78929 6.29289 9.41421 5.91782C9.03914 5.54274 8.53043 5.33203 8 5.33203C7.46957 5.33203 6.96086 5.54274 6.58579 5.91782C6.21071 6.29289 6 6.8016 6 7.33203Z" stroke="#414142" stroke-linecap="round" stroke-linejoin="round"/>
<path d="M11.7687 11.1045L8.94006 13.9331C8.69006 14.1829 8.35112 14.3232 7.99773 14.3232C7.64434 14.3232 7.30541 14.1829 7.0554 13.9331L4.22607 11.1045C3.48021 10.3586 2.97229 9.40827 2.76652 8.37371C2.56076 7.33916 2.66639 6.26681 3.07007 5.29229C3.47374 4.31777 4.15733 3.48483 5.03439 2.89881C5.91144 2.31279 6.94258 2 7.9974 2C9.05222 2 10.0834 2.31279 10.9604 2.89881C11.8375 3.48483 12.5211 4.31777 12.9247 5.29229C13.3284 6.26681 13.434 7.33916 13.2283 8.37371C13.0225 9.40827 12.5146 10.3586 11.7687 11.1045Z" stroke="#414142" stroke-linecap="round" stroke-linejoin="round"/>
</svg>
