<svg width="22" height="13" viewBox="0 0 22 13" fill="none" xmlns="http://www.w3.org/2000/svg">
<path d="M0 0V5.81032H13.7448V0H0ZM18.6902 2.03826C17.1982 2.03826 14.775 2.04579 14.775 2.04579H14.4314L14.4273 6.14421C14.4273 6.15105 14.43 6.15447 14.43 6.15926V8.89611H13.7455V6.50547H0.000687242V7.52768H1.70436C2.16894 7.52084 2.16894 8.21874 1.70436 8.21189H0V10.2645H2.839C2.99127 9.67739 3.33509 9.15722 3.81647 8.7857C4.29786 8.41418 4.88954 8.21235 5.49862 8.21189C6.10753 8.21242 6.69902 8.4143 7.18017 8.78583C7.66132 9.15736 8.00488 9.6775 8.15688 10.2645H14.5221C14.6744 9.67739 15.0182 9.15722 15.4996 8.7857C15.981 8.41418 16.5727 8.21235 17.1817 8.21189C17.7907 8.21242 18.3821 8.4143 18.8633 8.78583C19.3444 9.15736 19.688 9.6775 19.84 10.2645H21.9959V8.21189H20.9877C20.5231 8.21874 20.5231 7.52084 20.9877 7.52768H21.9959L22 6.15926H21.989C21.9937 6.07714 21.9667 5.99634 21.9134 5.93347L18.9473 2.15663C18.9152 2.11989 18.8756 2.09039 18.8312 2.07009C18.7867 2.0498 18.7384 2.03918 18.6896 2.03895L18.6902 2.03826ZM15.1186 2.72247H16.8326V5.80621H15.1145L15.1186 2.72453V2.72247ZM17.5199 2.72247H18.5349L20.9107 5.81305L17.5199 5.80621V2.72247ZM21.9883 6.162L21.9966 6.17158H21.9869L21.9883 6.162ZM15.7832 6.5H16.5041C16.9687 6.49316 16.9687 7.19105 16.5041 7.18421H15.8073C15.3489 7.19995 15.3248 6.51574 15.7832 6.5ZM5.49794 8.89474C5.22719 8.89474 4.95909 8.94783 4.70895 9.05098C4.45881 9.15414 4.23153 9.30533 4.04008 9.49594C3.84863 9.68654 3.69676 9.91282 3.59315 10.1619C3.48954 10.4109 3.43621 10.6778 3.43621 10.9474C3.43621 11.2169 3.48954 11.4838 3.59315 11.7329C3.69676 11.9819 3.84863 12.2082 4.04008 12.3988C4.23153 12.5894 4.45881 12.7406 4.70895 12.8438C4.95909 12.9469 5.22719 13 5.49794 13C6.04474 13 6.56915 12.7837 6.9558 12.3988C7.34245 12.0139 7.55966 11.4918 7.55966 10.9474C7.55966 10.403 7.34245 9.88088 6.9558 9.49594C6.56915 9.111 6.04474 8.89474 5.49794 8.89474ZM17.1811 8.89474C16.9103 8.89474 16.6422 8.94783 16.3921 9.05098C16.1419 9.15414 15.9146 9.30533 15.7232 9.49594C15.5317 9.68654 15.3799 9.91282 15.2763 10.1619C15.1727 10.4109 15.1193 10.6778 15.1193 10.9474C15.1193 11.2169 15.1727 11.4838 15.2763 11.7329C15.3799 11.9819 15.5317 12.2082 15.7232 12.3988C15.9146 12.5894 16.1419 12.7406 16.3921 12.8438C16.6422 12.9469 16.9103 13 17.1811 13C17.7279 13 18.2523 12.7837 18.6389 12.3988C19.0256 12.0139 19.2428 11.4918 19.2428 10.9474C19.2428 10.403 19.0256 9.88088 18.6389 9.49594C18.2523 9.111 17.7279 8.89474 17.1811 8.89474ZM5.49794 10.2632C5.68021 10.2632 5.85501 10.3352 5.98389 10.4636C6.11277 10.5919 6.18518 10.7659 6.18518 10.9474C6.18518 11.1288 6.11277 11.3029 5.98389 11.4312C5.85501 11.5595 5.68021 11.6316 5.49794 11.6316C5.31567 11.6316 5.14087 11.5595 5.01198 11.4312C4.8831 11.3029 4.8107 11.1288 4.8107 10.9474C4.8107 10.7659 4.8831 10.5919 5.01198 10.4636C5.14087 10.3352 5.31567 10.2632 5.49794 10.2632ZM17.1811 10.2632C17.3633 10.2632 17.5381 10.3352 17.667 10.4636C17.7959 10.5919 17.8683 10.7659 17.8683 10.9474C17.8683 11.1288 17.7959 11.3029 17.667 11.4312C17.5381 11.5595 17.3633 11.6316 17.1811 11.6316C16.9988 11.6316 16.824 11.5595 16.6951 11.4312C16.5662 11.3029 16.4938 11.1288 16.4938 10.9474C16.4938 10.7659 16.5662 10.5919 16.6951 10.4636C16.824 10.3352 16.9988 10.2632 17.1811 10.2632Z" fill="#99A0BE"/>
</svg>
